<svg xmlns="http://www.w3.org/2000/svg" viewBox="0 0 138.13 90.22"><defs><style>.cls-1,.cls-2,.cls-3{fill:#fff;}.cls-2,.cls-3{stroke:#000;stroke-miterlimit:10;}.cls-2{stroke-width:2px;}</style></defs><title>Recurso 4</title><g id="Capa_2" data-name="Capa 2"><g id="Capa_1-2" data-name="Capa 1"><path class="cls-1" d="M8,89a7,7,0,0,1-7-7L1.13,8a7,7,0,0,1,7-7l122,.22a7,7,0,0,1,7,7l-.13,74a7,7,0,0,1-7,7Z"/><path d="M8.13,0V2l122,.22a6,6,0,0,1,6,6l-.13,74a6,6,0,0,1-6,6L8,88a6,6,0,0,1-6-6L2.13,8a6,6,0,0,1,6-6V0m0,0a8,8,0,0,0-8,8L0,82a8,8,0,0,0,8,8l122,.22h0a8,8,0,0,0,8-8l.13-74a8,8,0,0,0-8-8L8.15,0Z"/><line class="cls-2" x1="0.11" y1="18.49" x2="138.11" y2="18.73"/><rect class="cls-2" x="83.63" y="1.15" width="18" height="17.5" transform="translate(0.02 -0.17) rotate(0.1)"/><rect class="cls-2" x="101.63" y="1.18" width="18" height="17.5" transform="translate(0.02 -0.2) rotate(0.1)"/><path class="cls-2" d="M119.63,1.22h10.46a7,7,0,0,1,7,7V18.72a0,0,0,0,1,0,0h-17.5a0,0,0,0,1,0,0V1.22a0,0,0,0,1,0,0Z" transform="translate(0.02 -0.23) rotate(0.1)"/><rect class="cls-3" x="108.13" y="6.94" width="7" height="4" transform="translate(0.02 -0.2) rotate(0.1)"/><rect class="cls-3" x="106.13" y="8.93" width="7" height="4" transform="translate(0.02 -0.2) rotate(0.1)"/><line class="cls-3" x1="89.12" y1="12.9" x2="96.12" y2="12.91"/><line class="cls-3" x1="125.91" y1="7.49" x2="130.85" y2="12.45"/><line class="cls-3" x1="130.86" y1="7.5" x2="125.9" y2="12.44"/><path class="cls-2" d="M88.3,53.81a19.14,19.14,0,0,1-3.06,10.3,18.71,18.71,0,0,1-5.67,5.64,18.36,18.36,0,0,1-6.3,2.61,19.52,19.52,0,0,1-4,.42A19.05,19.05,0,0,1,59,69.71a19,19,0,0,1-8.25-12,19.52,19.52,0,0,1-.42-4,19.19,19.19,0,0,1,3.06-10.31h0a19,19,0,0,1,12-8.23,19.62,19.62,0,0,1,4-.42,19,19,0,0,1,19,19Z"/><circle class="cls-2" cx="69.3" cy="53.86" r="8.5"/><path class="cls-2" d="M73.27,72.36v5.93l-8,0V72.34a18.23,18.23,0,0,0,4,.44A19.52,19.52,0,0,0,73.27,72.36Z"/><path class="cls-2" d="M73.34,29.29v5.93a18.76,18.76,0,0,0-4-.44,19.62,19.62,0,0,0-4,.42V29.27Z"/><path class="cls-2" d="M50.3,53.75a19.52,19.52,0,0,0,.42,4H44.79l0-8h5.93A18.86,18.86,0,0,0,50.3,53.75Z"/><path class="cls-2" d="M93.81,49.82l0,8H87.86a18.23,18.23,0,0,0,.44-4,18.85,18.85,0,0,0-.42-4Z"/><path class="cls-2" d="M59,69.71,54.76,73.9l-5.64-5.67,4.2-4.18A18.71,18.71,0,0,0,59,69.71Z"/><path class="cls-2" d="M89.48,39.32l-4.2,4.18a18.94,18.94,0,0,0-5.65-5.66l4.21-4.19Z"/><path class="cls-2" d="M89.42,68.31,83.76,74l-4.19-4.21a18.71,18.71,0,0,0,5.67-5.64Z"/><path class="cls-2" d="M59,37.8a18.87,18.87,0,0,0-5.66,5.63h0l-4.18-4.2,5.66-5.65Z"/></g></g></svg>