<svg xmlns="http://www.w3.org/2000/svg" viewBox="0 0 138.13 90.22"><defs><style>.cls-1,.cls-2,.cls-3{fill:#fff;}.cls-2,.cls-3{stroke:#000;stroke-miterlimit:10;}.cls-2{stroke-width:2px;}</style></defs><title>Recurso 3</title><g id="Capa_2" data-name="Capa 2"><g id="Capa_1-2" data-name="Capa 1"><path class="cls-1" d="M8,89a7,7,0,0,1-7-7L1.13,8a7,7,0,0,1,7-7l122,.22a7,7,0,0,1,7,7l-.13,74a7,7,0,0,1-7,7Z"/><path d="M8.13,0V2l122,.22a6,6,0,0,1,6,6l-.13,74a6,6,0,0,1-6,6L8,88a6,6,0,0,1-6-6L2.13,8a6,6,0,0,1,6-6V0m0,0a8,8,0,0,0-8,8L0,82a8,8,0,0,0,8,8l122,.22h0a8,8,0,0,0,8-8l.13-74a8,8,0,0,0-8-8L8.15,0Z"/><line class="cls-2" x1="0.11" y1="18.49" x2="138.11" y2="18.73"/><rect class="cls-2" x="83.63" y="1.15" width="18" height="17.5" transform="translate(0.02 -0.17) rotate(0.1)"/><rect class="cls-2" x="101.63" y="1.18" width="18" height="17.5" transform="translate(0.02 -0.2) rotate(0.1)"/><path class="cls-2" d="M119.63,1.22h10.46a7,7,0,0,1,7,7V18.72a0,0,0,0,1,0,0h-17.5a0,0,0,0,1,0,0V1.22a0,0,0,0,1,0,0Z" transform="translate(0.02 -0.23) rotate(0.1)"/><rect class="cls-3" x="108.13" y="6.94" width="7" height="4" transform="translate(0.02 -0.2) rotate(0.1)"/><rect class="cls-3" x="106.13" y="8.93" width="7" height="4" transform="translate(0.02 -0.2) rotate(0.1)"/><line class="cls-3" x1="89.12" y1="12.9" x2="96.12" y2="12.91"/><line class="cls-3" x1="125.91" y1="7.49" x2="130.85" y2="12.45"/><line class="cls-3" x1="130.86" y1="7.5" x2="125.9" y2="12.44"/><circle class="cls-2" cx="61.55" cy="66.2" r="5"/><circle class="cls-2" cx="80.54" cy="65.53" r="5"/><polyline class="cls-2" points="39.4 33.96 49.39 33.61 56.24 57.38 59.23 57.27 63.23 57.13 84.22 56.39 87.58 38.26 56.6 39.36 51.1 39.55"/></g></g></svg>